<svg width="48" height="48" viewBox="0 0 48 48" fill="none" xmlns="http://www.w3.org/2000/svg">
<path d="M13.723 9.58138C14.4679 9.58138 15.0717 8.97752 15.0717 8.23261C15.0717 7.48771 14.4679 6.88385 13.723 6.88385C12.9781 6.88385 12.3742 7.48771 12.3742 8.23261C12.3742 8.97752 12.9781 9.58138 13.723 9.58138Z" fill="black"/>
<path d="M45.2815 24.8771L36.3728 4.24019C36.2599 3.97863 36.0021 3.80902 35.7168 3.80902H35.7163C35.4304 3.80902 35.1727 3.97911 35.0602 4.24162L26.2044 24.8566C26.1096 25.0772 26.132 25.3311 26.264 25.5317C26.396 25.7323 26.6199 25.8533 26.86 25.8538L34.5919 25.8638C34.6096 25.8652 34.6272 25.8657 34.6448 25.8657L34.9635 25.8662V31.4899L33.2041 31.4875C33.2041 31.4875 33.2036 31.4875 33.2031 31.4875C32.8087 31.4875 32.489 31.8067 32.4885 32.2012L32.4733 43.5411C32.4728 43.9356 32.792 44.2558 33.1869 44.2567L38.2475 44.2653C38.248 44.2653 38.2485 44.2653 38.249 44.2653C38.4381 44.2653 38.6196 44.19 38.754 44.0566C38.8879 43.9227 38.9636 43.7407 38.9636 43.5511L38.9751 32.2093C38.9755 31.8148 38.6558 31.4947 38.2614 31.4942L36.3933 31.4918V25.8676L44.625 25.8757C44.6255 25.8757 44.6255 25.8757 44.6259 25.8757C44.8665 25.8757 45.0909 25.7547 45.2229 25.5541C45.3544 25.3521 45.3768 25.0982 45.2815 24.8771ZM37.5343 42.8341L33.903 42.8279L33.9164 32.9168L37.5439 32.9216L37.5343 42.8341ZM36.3923 24.4373V16.3257C36.3923 15.9307 36.0722 15.6111 35.6777 15.6111C35.2832 15.6111 34.9631 15.9307 34.9631 16.3257V24.4359H34.7553C34.7382 24.435 34.7206 24.434 34.7029 24.434L27.9448 24.4254L35.7177 6.33075L43.5378 24.445L36.3923 24.4373Z" fill="black"/>
<path d="M24.4274 21.3896H19.2791C17.8536 21.3896 16.6945 20.2305 16.6945 18.8055C16.6945 17.7007 17.2676 15.4229 17.8217 13.2199C18.2681 11.4466 18.6893 9.77149 18.8455 8.60091C19.0094 7.38841 18.6293 6.18162 17.7745 5.20446C16.774 4.06009 15.26 3.37689 13.724 3.37689C12.1851 3.37689 10.6686 4.06104 9.66862 5.20685C8.81534 6.184 8.43658 7.39031 8.6019 8.60139C8.76198 9.78864 9.20791 11.4857 9.68053 13.2823C10.2537 15.4615 10.8459 17.7145 10.8459 18.806C10.8459 20.231 9.68624 21.3901 8.26125 21.3901H3.02056C2.6256 21.3901 2.30592 21.7098 2.30592 22.1048V28.2769C2.30544 28.2888 2.30258 28.2997 2.30258 28.3116C2.30258 28.3236 2.30544 28.3345 2.30592 28.3464V43.4291C2.30592 43.8241 2.6256 44.1438 3.02056 44.1438H24.4269C24.8218 44.1438 25.1415 43.8241 25.1415 43.4291V22.1052C25.142 21.7093 24.8223 21.3896 24.4274 21.3896ZM8.26173 22.8189C10.4752 22.8189 12.2756 21.0185 12.2756 18.8055C12.2756 17.5296 11.6868 15.2899 11.0631 12.9188C10.6224 11.2427 10.167 9.50993 10.0183 8.40891C9.90921 7.61185 10.1674 6.80859 10.7453 6.14636C11.4671 5.31976 12.6086 4.80617 13.724 4.80617C14.8369 4.80617 15.977 5.31928 16.6988 6.14541C17.2776 6.80764 17.5373 7.61185 17.4291 8.41082C17.2833 9.50231 16.8527 11.2151 16.4358 12.8716C15.8336 15.2642 15.2652 17.5239 15.2652 18.806C15.2652 21.019 17.0661 22.8194 19.2791 22.8194H23.7127V27.597H3.73567V22.8194H8.26173V22.8189ZM3.73567 42.7135V29.0258H23.7127V42.7135H3.73567Z" fill="black"/>
</svg>
