<svg width="48" height="48" viewBox="0 0 48 48" fill="none" xmlns="http://www.w3.org/2000/svg">
<g clip-path="url(#clip0)">
<path d="M15.1003 43.5002C33.2091 43.5002 43.1166 28.4937 43.1166 15.484C43.1166 15.0621 43.1072 14.6308 43.0884 14.209C45.0158 12.8152 46.679 11.0888 48 9.11084C46.205 9.90944 44.2993 10.431 42.3478 10.6577C44.4026 9.42606 45.9411 7.49119 46.6781 5.21178C44.7451 6.35736 42.6312 7.16547 40.4269 7.60147C38.9417 6.02337 36.978 4.97848 34.8394 4.62835C32.7008 4.27822 30.5064 4.64234 28.5955 5.66444C26.6846 6.68653 25.1636 8.30966 24.2677 10.2829C23.3718 12.2561 23.1509 14.4695 23.6391 16.5808C19.725 16.3844 15.8959 15.3677 12.4 13.5964C8.90405 11.8252 5.81939 9.33912 3.34594 6.29928C2.0888 8.46673 1.70411 11.0315 2.27006 13.4724C2.83601 15.9133 4.31013 18.0471 6.39281 19.4402C4.82926 19.3906 3.29995 18.9696 1.93125 18.2121V18.334C1.92985 20.6085 2.7162 22.8134 4.15662 24.5738C5.59704 26.3342 7.60265 27.5414 9.8325 27.9902C8.38411 28.3865 6.86396 28.4442 5.38969 28.159C6.01891 30.1151 7.24315 31.826 8.89154 33.0529C10.5399 34.2798 12.5302 34.9614 14.5847 35.0027C11.0968 37.7425 6.78835 39.2285 2.35313 39.2215C1.56657 39.2203 0.780798 39.1721 0 39.0771C4.50571 41.9677 9.74706 43.503 15.1003 43.5002Z" fill="black"/>
</g>
<defs>
<clipPath id="clip0">
<rect width="48" height="48" fill="white"/>
</clipPath>
</defs>
</svg>
