<svg width="48" height="48" viewBox="0 0 48 48" fill="none" xmlns="http://www.w3.org/2000/svg">
<path d="M44.02 25.649C42.3837 24.3207 40.1332 24.2174 37.9564 24.1174C35.9767 24.0266 34.107 23.9405 32.9437 22.9609C32.9437 22.9609 32.9432 22.9609 32.9432 22.9604C32.6395 22.705 32.5376 22.5204 32.5438 22.4324C32.5706 22.0492 33.6875 21.349 34.503 20.8381C36.2704 19.7304 38.4701 18.3519 38.5763 16.0105C38.6739 13.8596 36.9017 11.4259 33.1594 8.5704C33.1412 8.55318 33.1226 8.53692 33.103 8.52162C28.3797 4.86158 22.8236 3.39268 17.4574 4.38709C12.2596 5.34993 7.70846 8.491 4.97108 13.0053C-0.293213 21.69 3.72747 33.7927 13.9346 39.9845C18.1414 42.5348 22.792 43.7607 27.1867 43.7607C33.7248 43.7607 39.6955 41.0458 42.7912 35.9408C44.5628 33.0121 46.4627 27.6278 44.02 25.649ZM41.5638 35.1975C36.7908 43.0677 24.4785 44.6982 14.6784 38.7571C5.14806 32.9758 1.34405 21.7575 6.19795 13.7496C8.72344 9.5849 12.9225 6.68681 17.7186 5.79859C18.7249 5.61205 19.739 5.51973 20.7535 5.51973C24.722 5.51973 28.691 6.93075 32.1846 9.62604C32.1975 9.638 32.2109 9.64995 32.2243 9.66095C32.2334 9.66861 32.2425 9.67626 32.2525 9.68343C35.5711 12.2089 37.2165 14.3154 37.1428 15.945C37.0711 17.5349 35.3018 18.6436 33.741 19.6218C32.3726 20.4799 31.1902 21.2208 31.1132 22.3324C31.0711 22.9365 31.3763 23.5172 32.0206 24.0581C33.5564 25.3505 35.7595 25.4519 37.8909 25.5495C39.9251 25.6428 41.8465 25.7313 43.1164 26.762C44.6499 28.0056 43.1714 32.5396 41.5638 35.1975Z" fill="black"/>
<path d="M27.0021 17.4651C27.8765 17.997 28.8364 18.2758 29.7467 18.2758C30.0829 18.2758 30.413 18.2376 30.7286 18.1605C31.5705 17.9544 32.2296 17.4909 32.6361 16.8179C33.6267 15.1725 32.716 12.7972 30.6062 11.5225C29.4052 10.7936 28.0463 10.5401 26.8768 10.829C26.0374 11.0361 25.3797 11.5015 24.9765 12.1716C24.568 12.8446 24.4613 13.6458 24.6675 14.4881C24.9545 15.6561 25.8059 16.7414 27.0021 17.4651ZM26.2048 12.9139C26.4621 12.4859 26.8993 12.3017 27.2207 12.2223C27.4211 12.173 27.634 12.1486 27.8545 12.1486C28.5031 12.1486 29.2172 12.3581 29.8624 12.7499C29.8629 12.7499 29.8634 12.7504 29.8639 12.7508C31.2734 13.6018 31.9804 15.1257 31.4078 16.077C31.1496 16.5041 30.7105 16.6878 30.3871 16.7667C29.5946 16.96 28.6088 16.7634 27.7464 16.2387C26.8845 15.7173 26.2545 14.9353 26.0613 14.1466C25.9819 13.8227 25.9422 13.3468 26.2048 12.9139Z" fill="black"/>
<path d="M31.6661 31.5509C31.6657 31.5509 31.6657 31.5509 31.6652 31.5504C30.7468 30.9936 29.6658 30.8291 28.6222 31.0855C27.5785 31.3423 26.6984 31.99 26.1455 32.9054C25.5873 33.8195 25.4189 34.8971 25.6724 35.9399C25.9264 36.9864 26.574 37.8708 27.4948 38.4295C28.1434 38.8241 28.8613 39.0125 29.5716 39.0125C30.9319 39.0125 32.2621 38.3228 33.0217 37.0763C33.5784 36.1594 33.7439 35.0794 33.488 34.0352C33.2312 32.9911 32.584 32.1091 31.6661 31.5509ZM31.7953 36.3302C31.051 37.5522 29.4568 37.943 28.2395 37.2031C27.6469 36.8434 27.2308 36.2742 27.0667 35.6003C26.9041 34.9316 27.0122 34.2395 27.3723 33.6502C27.7287 33.0599 28.2945 32.6438 28.9651 32.4788C29.1722 32.4281 29.3808 32.4027 29.5884 32.4027C30.0547 32.4027 30.5134 32.53 30.9214 32.7773C31.5126 33.1365 31.9287 33.7042 32.0938 34.3767C32.2583 35.0488 32.1526 35.7428 31.7953 36.3302Z" fill="black"/>
<path d="M19.2104 27.5479C18.2935 26.9912 17.2144 26.8242 16.1717 27.0806C15.1276 27.3365 14.2465 27.9837 13.6917 28.9011C13.133 29.8189 12.9656 30.8999 13.222 31.9441C13.4779 32.9873 14.1246 33.8688 15.0439 34.4279C15.6791 34.8139 16.3922 35.0115 17.1169 35.0115C17.4392 35.0115 17.7645 34.9723 18.0864 34.8929C19.1296 34.6355 20.0111 33.9869 20.5679 33.0686C21.1242 32.1555 21.2901 31.0783 21.0357 30.0351C20.7798 28.9891 20.1317 28.1056 19.2104 27.5479ZM19.3415 32.3234C18.9823 32.9165 18.4145 33.334 17.7425 33.5C17.0719 33.665 16.3779 33.5593 15.7886 33.202C15.1969 32.8419 14.7803 32.2741 14.6153 31.6021C14.4508 30.9315 14.5579 30.237 14.9181 29.6453C15.2754 29.0546 15.8417 28.6389 16.5123 28.4739C16.718 28.4242 16.9255 28.3988 17.1317 28.3988C17.5981 28.3988 18.0568 28.5265 18.4652 28.7743C18.4657 28.7748 18.4662 28.7753 18.4662 28.7753C19.0588 29.134 19.4759 29.7022 19.6404 30.3757C19.805 31.0458 19.6988 31.737 19.3415 32.3234Z" fill="black"/>
<path d="M15.194 22.1482C15.7508 21.2318 15.9163 20.1527 15.6604 19.11C15.4045 18.0658 14.7569 17.1838 13.8366 16.6271C12.9163 16.0684 11.8344 15.9024 10.7921 16.1598C9.74942 16.4161 8.86933 17.0643 8.31544 17.9826C7.16701 19.8739 7.77399 22.351 9.66954 23.5057C10.3057 23.8917 11.0189 24.0897 11.7445 24.0897C12.0664 24.0897 12.3911 24.0505 12.7121 23.9715C13.7558 23.7152 14.6378 23.0671 15.194 22.1482ZM13.9672 21.404C13.6084 21.9961 13.0412 22.4127 12.3696 22.5782C11.6985 22.7437 11.004 22.6371 10.4152 22.2793C9.19553 21.5365 8.8038 19.9432 9.54327 18.7254C9.90009 18.1338 10.4655 17.7176 11.1356 17.5526C11.3417 17.5019 11.5498 17.4766 11.7564 17.4766C12.2232 17.4766 12.6829 17.6043 13.0923 17.853L13.0928 17.8535C13.6854 18.2122 14.1021 18.7795 14.2671 19.451C14.4311 20.1216 14.3249 20.8152 13.9672 21.404Z" fill="black"/>
</svg>
