<svg width="48" height="48" viewBox="0 0 48 48" fill="none" xmlns="http://www.w3.org/2000/svg">
<path d="M35.8973 22.7326C35.6354 19.9622 31.0412 17.8766 24.8977 17.7253V16.2257C27.4627 15.8805 29.4464 13.7244 29.4464 11.1178C29.4464 8.52508 25.2587 2.01767 24.7814 1.28415C24.5166 0.877163 23.8429 0.876684 23.5777 1.28415C23.1003 2.01767 18.9127 8.52556 18.9127 11.1178C18.9127 13.7244 20.8964 15.8805 23.4613 16.2257V17.7253C17.3183 17.8766 12.7237 19.9623 12.4618 22.7321C12.4541 22.7747 12.4489 22.8183 12.4489 22.8628V41.5362C12.4489 41.5457 12.4489 41.5548 12.4493 41.5639C12.4489 41.5725 12.4489 41.5807 12.4489 41.5864C12.4489 44.5368 17.4921 46.7623 24.1795 46.7623C30.8674 46.7623 35.9102 44.5373 35.9102 41.5864C35.9102 41.5773 35.9102 41.5687 35.9097 41.5601C35.9102 41.5524 35.9102 41.5443 35.9102 41.5362V22.8628C35.9102 22.8183 35.9049 22.7747 35.8973 22.7326ZM20.3491 11.1178C20.3491 9.65171 22.4587 5.77723 24.179 3.01454C25.8606 5.72169 28.0099 9.66607 28.0099 11.1178C28.0099 12.9329 26.6674 14.4469 24.8977 14.7749V11.8504C24.8977 11.4534 24.576 11.1322 24.1795 11.1322C23.7826 11.1322 23.4613 11.4534 23.4613 11.8504V14.7749C21.6917 14.4469 20.3491 12.9329 20.3491 11.1178ZM23.4613 19.167V22.8628C23.4613 23.2598 23.7826 23.581 24.1795 23.581C24.576 23.581 24.8977 23.2598 24.8977 22.8628V19.167C30.5744 19.3197 34.4738 21.244 34.4738 22.9825C34.4738 24.7943 30.246 26.813 24.1795 26.813C18.1131 26.813 13.8853 24.7943 13.8853 22.9825C13.8853 21.244 17.7846 19.3197 23.4613 19.167ZM34.4738 41.5864C34.4738 43.3546 30.246 45.3259 24.1795 45.3259C18.1131 45.3259 13.8853 43.3551 13.8843 41.6243C13.8853 41.6094 13.8881 41.5716 13.8886 41.5563C13.8891 41.5266 13.8886 41.4978 13.8857 41.4686V25.5848C14.5096 26.1 15.3183 26.5573 16.2798 26.9413V38.6633C16.2798 39.0598 16.601 39.3815 16.998 39.3815C17.3949 39.3815 17.7162 39.0598 17.7162 38.6633V27.4273C18.4564 27.6389 19.257 27.8141 20.1102 27.9472V33.3965C20.1102 33.7929 20.4315 34.1147 20.8284 34.1147C21.2253 34.1147 21.5466 33.7929 21.5466 33.3965V28.1258C22.3878 28.2058 23.2679 28.2494 24.1795 28.2494C28.7301 28.2494 32.5169 27.2008 34.4738 25.5848V41.4672C34.4709 41.4969 34.47 41.5261 34.4709 41.5563L34.4738 41.5864Z" fill="black"/>
<path d="M31.2883 14.2707C31.1044 14.6222 31.2404 15.0565 31.5919 15.2398C31.6982 15.2954 31.8116 15.3217 31.9242 15.3217C32.1827 15.3217 32.4326 15.1814 32.561 14.9358C34.9928 10.2833 32.0664 6.20913 31.9404 6.0382C31.7053 5.71884 31.2577 5.65037 30.9383 5.88451C30.6185 6.11816 30.549 6.56728 30.7817 6.8876C30.8856 7.03028 33.2974 10.4264 31.2883 14.2707Z" fill="black"/>
<path d="M16.0873 16.2793C16.2103 16.2793 16.3353 16.2477 16.4492 16.1807C16.7916 15.9805 16.9065 15.5405 16.7064 15.1982C12.8798 8.66297 18.1672 4.33986 18.4008 4.15456C18.7116 3.90894 18.7647 3.45742 18.5191 3.14668C18.274 2.83546 17.8229 2.78231 17.5107 3.02698C17.4452 3.07869 10.9976 8.29046 15.4667 15.924C15.6003 16.1524 15.8402 16.2793 16.0873 16.2793Z" fill="black"/>
</svg>
