<svg width="48" height="48" viewBox="0 0 48 48" fill="none" xmlns="http://www.w3.org/2000/svg">
<path d="M36.8533 23.3682C36.9745 23.4894 37.035 23.6483 37.035 23.8072C37.035 23.9661 36.9745 24.125 36.8533 24.2463L31.4738 29.6258C31.2317 29.8682 30.8382 29.8682 30.5961 29.6258C30.3536 29.3833 30.3536 28.9906 30.5961 28.7481L34.9158 24.4283L11.5858 24.4283C11.2428 24.4283 10.9651 24.1507 10.9651 23.8076C10.9651 23.4646 11.2428 23.1869 11.5858 23.1869L34.9158 23.1869L30.5961 18.8672C30.3536 18.6247 30.3536 18.232 30.5961 17.9895C30.8382 17.747 31.2317 17.747 31.4738 17.9895L36.8533 23.3682Z" fill="black"/>
</svg>
