<svg width="48" height="48" viewBox="0 0 48 48" fill="none" xmlns="http://www.w3.org/2000/svg">
<path fill-rule="evenodd" clip-rule="evenodd" d="M43.7105 3.95368H17.2874C16.8909 3.95368 16.57 4.27463 16.57 4.67116V15.4983H4.69122C4.2947 15.4983 3.97375 15.8193 3.97375 16.2158V37.2268C3.97375 37.6229 4.2947 37.9443 4.69122 37.9443H10.9704L16.8708 44.1844C17.0091 44.3308 17.1989 44.4092 17.3922 44.4092C17.4811 44.4092 17.5711 44.3929 17.6572 44.3585C17.9303 44.2499 18.1092 43.9864 18.1096 43.6922L18.1125 37.9443H32.3981C32.7941 37.9443 33.1156 37.6229 33.1156 37.2268V26.3996H43.71C44.1061 26.3996 44.4275 26.0782 44.4275 25.6822V4.67116C44.428 4.27463 44.1066 3.95368 43.7105 3.95368ZM31.6806 36.5093H17.3955C16.9995 36.5093 16.6781 36.8303 16.6781 37.2263L16.6757 41.8894L11.8008 36.7341C11.6654 36.5906 11.477 36.5093 11.2794 36.5093H5.40868V16.9333H16.57V25.6822C16.57 26.0782 16.8909 26.3996 17.2874 26.3996H22.6248V31.686C22.6248 31.9749 22.798 32.2356 23.0644 32.3475C23.1543 32.3853 23.2486 32.4035 23.3418 32.4035C23.5265 32.4035 23.7077 32.3327 23.8445 32.1978L29.7516 26.3996H31.6806V36.5093ZM42.9931 24.9647H29.4584C29.2704 24.9647 29.0896 25.0383 28.9557 25.1704L24.0598 29.976V25.6817C24.0598 25.2856 23.7388 24.9642 23.3423 24.9642H18.0049V5.38863H42.9931V24.9647ZM23.9196 12.4986H23.9287C25.1522 12.4939 26.1432 11.4947 26.1385 10.2716C26.1337 9.05148 25.1393 8.06187 23.9201 8.06187H23.911C22.6875 8.06665 21.6964 9.06583 21.7012 10.2889C21.7065 11.5095 22.7004 12.4986 23.9196 12.4986ZM23.9167 9.49679H23.9201C24.3505 9.49679 24.7016 9.84595 24.7035 10.2769C24.7045 10.4864 24.6237 10.6835 24.4759 10.8317C24.3285 10.9805 24.132 11.0623 23.9229 11.0632C23.712 11.0695 23.5164 10.9834 23.3681 10.836C23.2193 10.6887 23.1376 10.4921 23.1366 10.2831C23.1347 9.85121 23.4848 9.4987 23.9167 9.49679ZM31.0229 12.4986H31.0138C30.4246 12.4986 29.8702 12.2705 29.4517 11.8548C29.0308 11.4378 28.7978 10.8815 28.7954 10.2889C28.7907 9.06583 29.7817 8.06665 31.0052 8.06187H31.0143C32.2335 8.06187 33.2279 9.05148 33.2327 10.2716C33.2375 11.4947 32.2464 12.4939 31.0229 12.4986ZM31.0143 9.49679H31.011C30.579 9.4987 30.2284 9.85121 30.2308 10.2826C30.2318 10.4921 30.3136 10.6883 30.4623 10.836C30.6101 10.9829 30.8058 11.0632 31.0138 11.0632H31.0172C31.2262 11.0623 31.4228 10.9805 31.5701 10.8317C31.7179 10.6835 31.7987 10.4864 31.7978 10.2769C31.7959 9.84595 31.4448 9.49679 31.0143 9.49679Z" fill="black"/>
</svg>
