<svg width="48" height="48" viewBox="0 0 48 48" fill="none" xmlns="http://www.w3.org/2000/svg">
<path d="M11.1467 23.3681C11.0255 23.4893 10.965 23.6482 10.965 23.8071C10.965 23.966 11.0255 24.1249 11.1467 24.2462L16.5262 29.6257C16.7683 29.8682 17.1618 29.8682 17.4039 29.6257C17.6464 29.3832 17.6464 28.9905 17.4039 28.748L13.0842 24.4283L36.4142 24.4283C36.7572 24.4283 37.0349 24.1506 37.0349 23.8076C37.0349 23.4645 36.7572 23.1868 36.4142 23.1868L13.0842 23.1868L17.4039 18.8671C17.6464 18.6246 17.6464 18.2319 17.4039 17.9894C17.1618 17.7469 16.7683 17.7469 16.5262 17.9894L11.1467 23.3681Z" fill="black"/>
</svg>
