<svg width="48" height="48" viewBox="0 0 48 48" fill="none" xmlns="http://www.w3.org/2000/svg">
<path d="M37.6336 13.3789L32.2621 13.3191V9.79917C32.2621 5.14759 28.4772 1.36367 23.8257 1.36367C19.1746 1.36367 15.3906 5.14807 15.3906 9.79917V13.1306L10.2139 13.0727C10.0178 13.077 9.83743 13.1454 9.70159 13.2803C9.56527 13.4152 9.48874 13.5989 9.48874 13.7902V45.75C9.48874 46.1465 9.80969 46.4675 10.2062 46.4675H37.6264C38.0229 46.4675 38.3438 46.1465 38.3438 45.75V14.0968C38.3434 13.7036 38.0267 13.3836 37.6336 13.3789ZM16.8256 9.79917C16.8256 5.9392 19.9657 2.7986 23.8257 2.7986C27.6861 2.7986 30.8272 5.9392 30.8272 9.79917V13.3028L16.8256 13.1464V9.79917ZM36.9084 45.0326H10.9232V14.5158L15.3906 14.5655V16.7146C14.401 17.0384 13.6787 17.9596 13.6787 19.0564C13.6787 20.421 14.7889 21.5307 16.1531 21.5307C17.5172 21.5307 18.6274 20.4206 18.6274 19.0564C18.6274 17.9266 17.8616 16.9815 16.8251 16.6864V14.5818L30.8267 14.7382V16.7007C29.8136 17.0107 29.0699 17.9434 29.0699 19.0564C29.0699 20.421 30.18 21.5307 31.5442 21.5307C32.9083 21.5307 34.0185 20.4206 34.0185 19.0564C34.0185 17.9434 33.2747 17.0102 32.2616 16.7007V14.7545L36.908 14.8066V45.0326H36.9084ZM16.1531 18.017C16.7261 18.017 17.1924 18.4834 17.1924 19.0564C17.1924 19.6294 16.7261 20.0958 16.1531 20.0958C15.58 20.0958 15.1137 19.6294 15.1137 19.0564C15.1137 18.4834 15.58 18.017 16.1531 18.017ZM31.5446 18.017C32.1177 18.017 32.584 18.4834 32.584 19.0564C32.584 19.6294 32.1177 20.0958 31.5446 20.0958C30.9716 20.0958 30.5053 19.6294 30.5053 19.0564C30.5053 18.4834 30.9716 18.017 31.5446 18.017Z" fill="black"/>
</svg>
