<svg width="48" height="48" viewBox="0 0 48 48" fill="none" xmlns="http://www.w3.org/2000/svg">
<path d="M42.0261 38.8885L26.2004 7.22754C26.141 7.10954 26.05 7.01035 25.9376 6.94104C25.8251 6.87173 25.6957 6.83503 25.5636 6.83503C25.4315 6.83503 25.302 6.87173 25.1895 6.94104C25.0771 7.01035 24.9861 7.10954 24.9267 7.22754L20.8634 15.3448L15.2079 4.03863C15.1486 3.92063 15.0576 3.82144 14.9451 3.75213C14.8327 3.68282 14.7032 3.64612 14.5711 3.64612C14.439 3.64612 14.3095 3.68282 14.197 3.75213C14.0846 3.82144 13.9936 3.92063 13.9343 4.03863L8.62098 14.6652L1.26415 29.3836C1.20993 29.4922 1.18434 29.6129 1.18981 29.7341C1.19528 29.8554 1.23163 29.9733 1.29541 30.0765C1.35919 30.1798 1.4483 30.2651 1.55427 30.3243C1.66025 30.3835 1.77959 30.4147 1.90098 30.4149H13.3069L9.09623 38.8885C9.04201 38.9971 9.01642 39.1178 9.02189 39.2391C9.02736 39.3603 9.06371 39.4782 9.12749 39.5815C9.19127 39.6848 9.28037 39.7701 9.38635 39.8293C9.49233 39.8885 9.61167 39.9197 9.73306 39.9198H41.3845C41.5059 39.9197 41.6253 39.8885 41.7313 39.8293C41.8372 39.7701 41.9263 39.6848 41.9901 39.5815C42.0539 39.4782 42.0902 39.3603 42.0957 39.2391C42.1012 39.1178 42.0756 38.9971 42.0214 38.8885H42.0261ZM25.5588 9.13804L32.5449 23.1198C29.7172 24.2604 28.2677 23.4145 26.5806 22.426C25.3782 21.7131 24.0095 20.9099 22.099 20.9099C21.1648 20.9012 20.2401 21.0975 19.3901 21.485L25.5588 9.13804ZM14.5758 5.94912L18.5346 13.8953C16.9711 14.5131 16.2392 14.0711 15.322 13.5151C14.6053 12.9978 13.7527 12.7021 12.8697 12.6644C12.2296 12.6747 11.5973 12.807 11.0067 13.0541L14.5758 5.94912ZM3.05584 28.9891L9.84237 15.4161C10.1988 15.1214 11.5247 14.0949 12.884 14.0949C13.5035 14.1388 14.0973 14.3599 14.5948 14.7317C15.6166 15.3495 16.8855 16.1147 19.1857 15.1689L20.0697 16.9321L14.0436 28.9891H3.05584ZM10.8832 38.4941L15.0701 30.1155C15.1112 30.0572 15.1432 29.9932 15.1651 29.9254L17.4701 25.3155C17.4894 25.2898 17.5068 25.2628 17.5224 25.2347C17.934 24.3689 18.5822 23.6372 19.392 23.1242C20.2019 22.6112 21.1403 22.3379 22.099 22.3357C23.6198 22.3357 24.7081 22.9772 25.863 23.6521C27.6356 24.6929 29.6649 25.8715 33.1913 24.3982L40.2344 38.4941H10.8832Z" fill="black"/>
</svg>
