<svg width="48" height="48" viewBox="0 0 48 48" fill="none" xmlns="http://www.w3.org/2000/svg">
<path d="M21.5461 4.18952C21.5461 3.79259 21.2249 3.47131 20.8279 3.47131H6.46384C6.06691 3.47131 5.74564 3.79259 5.74564 4.18952V34.4441C5.74564 38.7505 9.24904 42.2544 13.5554 42.2544H13.7249C18.0375 42.2544 21.5461 38.7462 21.5461 34.4336V4.18952ZM7.18204 13.5262H20.1097V26.9327H7.18204V13.5262ZM20.1097 4.90772V12.0898H7.18204V4.90772H20.1097ZM13.7254 40.818H13.5559C10.041 40.818 7.18204 37.9585 7.18204 34.4441V28.3691H20.1097V34.4336C20.1097 37.9542 17.2455 40.818 13.7254 40.818Z" fill="black"/>
<path d="M24.1144 33.3362C24.2542 33.4741 24.4362 33.543 24.6186 33.543C24.8044 33.543 24.9892 33.4717 25.13 33.3295L39.6152 18.6436C39.8905 18.364 39.8905 17.9149 39.6152 17.6353L29.8266 7.71016C29.5565 7.43628 29.0739 7.43676 28.8034 7.71016L24.1073 12.4719C23.8286 12.7543 23.8319 13.2092 24.1144 13.4874C24.396 13.7656 24.8513 13.7627 25.1305 13.4802L29.3152 9.23706L38.0955 18.1385L24.1073 32.3202C23.8286 32.6026 23.8319 33.0575 24.1144 33.3362Z" fill="black"/>
<path d="M43.3317 27.4115H33.2768C32.8804 27.4115 32.5586 27.7332 32.5586 28.1297C32.5586 28.5261 32.8804 28.8479 33.2768 28.8479H42.6135V41.7755H21.3067C20.9098 41.7755 20.5885 42.0973 20.5885 42.4937C20.5885 42.8902 20.9098 43.212 21.3067 43.212H43.3317C43.7281 43.212 44.0499 42.8902 44.0499 42.4937V28.1297C44.0499 27.7332 43.7281 27.4115 43.3317 27.4115Z" fill="black"/>
<path d="M13.6459 32.1995C12.1937 32.1995 11.0125 33.3812 11.0125 34.8329C11.0125 36.2846 12.1937 37.4663 13.6459 37.4663C15.0981 37.4663 16.2793 36.2846 16.2793 34.8329C16.2793 33.3812 15.0981 32.1995 13.6459 32.1995ZM13.6459 36.0299C12.9861 36.0299 12.4489 35.4932 12.4489 34.8329C12.4489 34.1726 12.9861 33.6359 13.6459 33.6359C14.3057 33.6359 14.8429 34.1726 14.8429 34.8329C14.8429 35.4932 14.3057 36.0299 13.6459 36.0299Z" fill="black"/>
</svg>
