<svg width="48" height="48" viewBox="0 0 48 48" fill="none" xmlns="http://www.w3.org/2000/svg">
<path d="M7.09237 25.3448C4.92658 25.3448 3.16492 27.2083 3.16492 29.4989C3.16492 30.6971 3.63711 33.4833 8.00961 33.4833H8.06435C8.45895 33.4833 8.77835 33.1618 8.77835 32.7658C8.77835 32.3697 8.45895 32.0483 8.06435 32.0483H8.00961C5.74244 32.0483 4.59291 31.1907 4.59291 29.4989C4.59291 27.9994 5.71388 26.7797 7.09237 26.7797C7.68641 26.7797 8.27093 27.0457 8.73836 27.5278C9.32003 28.1281 9.64085 28.9761 9.61753 29.8553C9.60706 30.2513 9.91836 30.5809 10.3125 30.5909C10.708 30.6148 11.0346 30.2891 11.045 29.8926C11.0779 28.6289 10.61 27.402 9.76128 26.5262C9.02253 25.7647 8.07482 25.3448 7.09237 25.3448Z" fill="black"/>
<path d="M47.6787 21.757C47.5783 21.469 47.3084 21.2763 47.0047 21.2763H27.6316C28.0505 20.2355 28.22 19.0033 28.22 18.062C28.22 14.2312 25.5563 11.4513 21.8868 11.4513C20.5007 11.4513 19.138 11.9248 18.0284 12.7877C17.9837 12.8082 17.9403 12.8336 17.8999 12.8637L3.32058 23.6702C3.25632 23.718 3.20539 23.7759 3.16207 23.8381C1.5732 25.1549 0.545044 27.2035 0.545044 29.507C0.545044 33.3828 3.44624 36.5516 7.06096 36.6903C7.13712 36.7185 7.21947 36.7339 7.30515 36.7343L29.399 36.8123C29.3995 36.8123 29.4004 36.8123 29.4014 36.8123C29.5632 36.8123 29.7198 36.7573 29.8465 36.6559L47.4498 22.5553C47.6873 22.3644 47.7787 22.0444 47.6787 21.757ZM18.5996 14.1279C18.6658 14.1011 18.7281 14.0638 18.7843 14.0174C19.6782 13.2775 20.7511 12.8862 21.8868 12.8862C24.729 12.8862 26.792 15.063 26.792 18.062C26.792 19.1923 26.5069 20.7224 25.89 21.5015L13.9991 30.5522C14.0462 30.2083 14.07 29.8596 14.07 29.5066C14.07 25.6236 11.1588 22.4577 7.53601 22.3281L18.5996 14.1279ZM29.1525 35.3759L7.54362 35.2999C7.46985 35.2736 7.39035 35.2597 7.30753 35.2597C4.36587 35.2597 1.97256 32.6787 1.97256 29.507C1.97256 26.333 4.36587 23.751 7.30753 23.751C10.2492 23.751 12.642 26.333 12.642 29.507C12.642 30.3651 12.4692 31.1945 12.1284 31.9723C12.0942 32.0512 12.0746 32.1325 12.0694 32.2138C12.0161 32.4195 12.0537 32.6462 12.1908 32.8284C12.4288 33.1446 12.8767 33.2063 13.1913 32.9672L26.6654 22.7112H44.9636L29.1525 35.3759Z" fill="black"/>
</svg>
