<svg width="48" height="48" viewBox="0 0 48 48" fill="none" xmlns="http://www.w3.org/2000/svg">
<path d="M44.5254 36.4586C44.5479 36.3893 44.5632 36.3161 44.5632 36.2391V10.8276C44.5632 10.7501 44.5479 10.6764 44.5249 10.6066C44.5216 10.597 44.5197 10.5875 44.5158 10.5779C44.4852 10.4961 44.4403 10.4225 44.3838 10.3579C44.38 10.3536 44.3795 10.3483 44.3757 10.344C44.3733 10.3416 44.3704 10.3407 44.368 10.3383C44.3078 10.2742 44.2365 10.2225 44.1566 10.1838C44.1504 10.1809 44.1456 10.1771 44.1394 10.1742C44.0638 10.1403 43.9816 10.1211 43.895 10.1154C43.8864 10.1149 43.8783 10.113 43.8696 10.113C43.8615 10.1125 43.8543 10.1106 43.8462 10.1106H4.04869C4.04056 10.1106 4.0329 10.1125 4.02477 10.113C4.01712 10.1135 4.00947 10.1149 4.00181 10.1154C3.91428 10.1211 3.83058 10.1407 3.75405 10.1752C3.74927 10.1771 3.74544 10.1804 3.74066 10.1823C3.65935 10.2211 3.58712 10.2737 3.52638 10.3388C3.52399 10.3411 3.52112 10.3416 3.51872 10.344C3.5149 10.3478 3.51442 10.3531 3.51059 10.3574C3.45415 10.422 3.40871 10.4961 3.3781 10.5779C3.37428 10.5875 3.37236 10.597 3.36901 10.6071C3.34606 10.6769 3.33075 10.7506 3.33075 10.8281V36.2401C3.33075 36.3185 3.34653 36.3931 3.36997 36.4639C3.37332 36.4735 3.37523 36.4826 3.37858 36.4921C3.40967 36.5744 3.45559 36.6485 3.51251 36.7131C3.51585 36.7169 3.51681 36.7217 3.52016 36.7255C3.52303 36.7289 3.52686 36.7308 3.5302 36.7342C3.55364 36.7586 3.57947 36.7801 3.60625 36.8011C3.61821 36.8102 3.62873 36.8212 3.64117 36.8298C3.67274 36.8518 3.7067 36.8695 3.74161 36.8858C3.75022 36.8896 3.75788 36.8958 3.76649 36.8992C3.85306 36.936 3.94824 36.9571 4.04821 36.9571H43.8452C43.9452 36.9571 44.0404 36.9365 44.127 36.8992C44.1404 36.8934 44.1528 36.8848 44.1657 36.8781C44.1954 36.8633 44.225 36.848 44.2523 36.8293C44.2666 36.8193 44.2796 36.8064 44.2934 36.7954C44.3178 36.7758 44.3417 36.7562 44.3628 36.7337C44.3666 36.7299 44.3709 36.727 44.3747 36.7232C44.3786 36.7188 44.3795 36.7131 44.3833 36.7088C44.4393 36.6447 44.4843 36.571 44.5149 36.4897C44.5197 36.4792 44.522 36.4692 44.5254 36.4586ZM4.76615 12.4548L16.842 23.4853L4.76615 34.6037V12.4548ZM29.5166 22.9448C29.4669 22.9773 29.4143 23.0046 29.3726 23.0505C29.3569 23.0677 29.3516 23.0902 29.3377 23.1084L23.9472 28.0321L5.89782 11.5451H41.9966L29.5166 22.9448ZM17.9057 24.4567L23.4632 29.5331C23.6004 29.6584 23.7736 29.7211 23.9472 29.7211C24.1208 29.7211 24.294 29.6584 24.4308 29.5331L29.9193 24.5199L41.9932 35.5221H5.8873L17.9057 24.4567ZM30.9836 23.5479L43.1283 12.4548V34.6152L30.9836 23.5479Z" fill="black"/>
</svg>
