<svg width="48" height="48" viewBox="0 0 48 48" fill="none" xmlns="http://www.w3.org/2000/svg">
<path fill-rule="evenodd" clip-rule="evenodd" d="M18.3762 29.3851H41.6717C42.0671 29.3851 42.3881 29.7056 42.3881 30.1015V41.6721C42.3881 42.0681 42.0671 42.3885 41.6717 42.3885H6.08959C5.69365 42.3885 5.37317 42.0681 5.37317 41.6721V30.1015V6.09003C5.37317 5.69409 5.69365 5.37361 6.08959 5.37361H17.6597C18.0557 5.37361 18.3762 5.69409 18.3762 6.09003V29.3851ZM16.9433 29.3851V6.80645H6.806V11.0142H10.2825C10.6785 11.0142 10.999 11.3347 10.999 11.7306C10.999 12.1266 10.6785 12.447 10.2825 12.447H6.806V17.0894H13.1783C13.5742 17.0894 13.8947 17.4099 13.8947 17.8058C13.8947 18.2018 13.5742 18.5223 13.1783 18.5223H6.806V23.1647H10.2825C10.6785 23.1647 10.999 23.4851 10.999 23.8811C10.999 24.277 10.6785 24.5975 10.2825 24.5975H6.806V29.3851H16.9433ZM6.806 40.9557H40.9553V30.8179H6.806V40.9557ZM38.9164 35.8859C38.9164 37.5575 37.5566 38.9178 35.885 38.9178C34.2133 38.9178 32.8531 37.5575 32.8531 35.8859C32.8531 34.2142 34.2133 32.8545 35.885 32.8545C37.5561 32.8545 38.9164 34.2142 38.9164 35.8859ZM37.4835 35.8859C37.4835 35.0042 36.7662 34.2873 35.885 34.2873C35.0033 34.2873 34.2859 35.0047 34.2859 35.8859C34.2859 36.7675 35.0033 37.4849 35.885 37.4849C36.7662 37.4849 37.4835 36.7675 37.4835 35.8859Z" fill="black"/>
</svg>
