<svg width="48" height="48" viewBox="0 0 48 48" fill="none" xmlns="http://www.w3.org/2000/svg">
<path d="M41.8255 24.26C41.8255 14.5125 33.9706 6.56246 24.2289 6.3343C24.1949 6.32952 24.1614 6.32378 24.126 6.32378C24.0921 6.32378 24.0591 6.32856 24.0246 6.32904C23.9495 6.32809 23.8754 6.3233 23.7998 6.3233C13.861 6.3233 5.77466 14.3695 5.77466 24.26C5.77466 34.1505 13.8605 42.1967 23.7998 42.1967H23.8003H23.8008C33.7401 42.1962 41.8255 34.15 41.8255 24.26ZM7.21007 24.26C7.21007 17.268 11.6067 11.282 17.7932 8.88227C15.988 10.6028 14.8525 13.0402 14.8525 15.7475C14.8525 20.8185 18.9837 24.9473 24.0729 24.9765C24.0906 24.9779 24.1088 24.9784 24.127 24.9784C28.45 24.9784 31.967 28.4753 31.967 32.773C31.967 37.028 28.151 40.7613 23.8013 40.7613C23.8008 40.7613 23.8008 40.7613 23.8003 40.7613C14.6526 40.7617 7.21007 33.3589 7.21007 24.26ZM30.5593 39.3244C32.2961 37.6001 33.4019 35.2635 33.4019 32.7735C33.4019 27.7019 29.2708 23.5736 24.1815 23.5444C24.1638 23.543 24.1456 23.5425 24.1275 23.5425C19.8045 23.5425 16.2875 20.0461 16.2875 15.7484C16.2875 11.4518 19.8222 7.82137 24.0275 7.76446C33.0709 7.88643 40.3905 15.2371 40.3905 24.2605C40.3905 30.9654 36.3469 36.7449 30.5593 39.3244Z" fill="black"/>
<path d="M26.7519 34.9794C26.7519 33.5397 25.5743 32.3683 24.127 32.3679C22.6796 32.3679 21.5015 33.5392 21.5015 34.9794C21.5015 36.423 22.6791 37.5968 24.127 37.5968C25.5748 37.5968 26.7519 36.423 26.7519 34.9794ZM22.9365 34.9794C22.9365 34.3308 23.4707 33.8028 24.1265 33.8028C24.7832 33.8033 25.317 34.3308 25.317 34.9794C25.317 35.6314 24.7832 36.1618 24.127 36.1618C23.4707 36.1618 22.9365 35.6314 22.9365 34.9794Z" fill="black"/>
<path d="M24.1265 10.8644C22.6791 10.8644 21.501 12.0377 21.501 13.4793C21.501 14.9229 22.6786 16.0966 24.1265 16.0966C25.5743 16.0966 26.7515 14.9224 26.7515 13.4793C26.7519 12.0372 25.5743 10.8644 24.1265 10.8644ZM24.1265 14.6617C23.4702 14.6617 22.936 14.1312 22.936 13.4793C22.936 12.8288 23.4702 12.2993 24.1265 12.2993C24.7827 12.2993 25.3165 12.8283 25.3165 13.4793C25.317 14.1312 24.7827 14.6617 24.1265 14.6617Z" fill="black"/>
</svg>
