<svg width="48" height="48" viewBox="0 0 48 48" fill="none" xmlns="http://www.w3.org/2000/svg">
<path d="M46.2178 16.0015C46.1528 15.9035 46.0645 15.8232 45.9608 15.7676C45.8572 15.7121 45.7414 15.683 45.6238 15.683H42.8768C42.7813 15.6825 42.6867 15.7011 42.5985 15.7379C42.5103 15.7746 42.4304 15.8287 42.3636 15.8969L37.4875 20.9108H26.5568L32.3168 11.5436C32.3838 11.4355 32.4207 11.3114 32.4235 11.1842C32.4264 11.057 32.3952 10.9314 32.3331 10.8204C32.271 10.7093 32.1804 10.6169 32.0706 10.5527C31.9607 10.4885 31.8357 10.4549 31.7085 10.4553H25.5303C25.3413 10.4555 25.1601 10.5307 25.0265 10.6644L14.7802 20.9108H11.2634C5.47011 20.9108 1.42575 24.1425 1.42575 28.7856C1.42575 29.218 1.59749 29.6326 1.9032 29.9383C2.2089 30.244 2.62352 30.4157 3.05585 30.4157H13.5921L25.7394 42.563C25.873 42.6968 26.0542 42.772 26.2432 42.7722H32.4214C32.5486 42.7726 32.6736 42.7389 32.7834 42.6748C32.8933 42.6106 32.9839 42.5181 33.046 42.4071C33.1081 42.2961 33.1393 42.1704 33.1364 42.0433C33.1336 41.9161 33.0967 41.792 33.0297 41.6838L26.0911 30.4157H36.2709C37.4953 30.4151 38.6925 30.0543 39.7133 29.3783C40.7341 28.7022 41.5335 27.7408 42.0119 26.6137L46.2891 16.6621C46.3318 16.5544 46.3476 16.438 46.3351 16.3229C46.3227 16.2079 46.2825 16.0975 46.2178 16.0015ZM25.825 11.8811H30.4158L24.8745 20.9108H16.7953L25.825 11.8811ZM40.7002 26.0672C40.3295 26.9348 39.7121 27.6744 38.9246 28.194C38.1372 28.7136 37.2144 28.9904 36.2709 28.99H24.8174C24.6902 28.9896 24.5652 29.0232 24.4554 29.0874C24.3456 29.1516 24.2549 29.244 24.1928 29.355C24.1308 29.4661 24.0996 29.5917 24.1024 29.7189C24.1053 29.8461 24.1421 29.9702 24.2091 30.0783L31.143 41.3464H26.5378L14.3905 29.1991C14.2569 29.0654 14.0757 28.9901 13.8867 28.99H3.05585C3.02797 28.9894 3.0005 28.9832 2.97504 28.9718C2.94959 28.9604 2.92667 28.9441 2.90762 28.9237C2.88858 28.9033 2.87381 28.8794 2.86417 28.8532C2.85453 28.827 2.85022 28.7992 2.85149 28.7714C2.85149 24.9836 6.3113 22.3365 11.2634 22.3365H37.7917C37.8872 22.3371 37.9819 22.3184 38.07 22.2817C38.1582 22.245 38.2381 22.1909 38.305 22.1227L43.1762 17.1088H44.545L40.7002 26.0672Z" fill="black"/>
</svg>
