<svg width="48" height="48" viewBox="0 0 48 48" fill="none" xmlns="http://www.w3.org/2000/svg">
<path d="M44.0788 14.4665V14.4646C44.0788 14.4627 44.0783 14.4613 44.0783 14.4594C44.0778 14.4077 44.0707 14.356 44.0592 14.3053C44.0554 14.2891 44.0501 14.2738 44.0453 14.258C44.0348 14.2231 44.0214 14.1886 44.0051 14.1547C43.9965 14.137 43.9874 14.1193 43.9774 14.1025C43.9707 14.0911 43.9659 14.0781 43.9587 14.0671C43.9458 14.048 43.9301 14.0322 43.9157 14.0145C43.9042 14.0002 43.8937 13.9858 43.8813 13.9724C43.8444 13.9332 43.8047 13.8983 43.7612 13.8691C43.7607 13.8686 43.7602 13.8682 43.7598 13.8677L43.7593 13.8672C43.7579 13.8662 43.7564 13.8653 43.7555 13.8643L26.3593 2.2868C26.1182 2.12657 25.8049 2.12657 25.5638 2.2868L19.4405 6.36919L19.44 6.36967L13.8136 10.1201C13.7366 10.1541 13.6644 10.2005 13.6022 10.2612L4.07761 16.6113C4.03169 16.6414 3.9896 16.6787 3.95038 16.7199C3.93794 16.7332 3.92742 16.7476 3.91594 16.7619C3.90159 16.7796 3.88581 16.7949 3.87289 16.8146C3.86524 16.8256 3.86094 16.838 3.85424 16.8495C3.8442 16.8667 3.83463 16.8844 3.82602 16.903C3.81024 16.9361 3.79732 16.97 3.7868 17.0044C3.78154 17.0212 3.77628 17.037 3.77245 17.0537C3.76145 17.1025 3.75475 17.1518 3.75427 17.2015C3.75427 17.2053 3.75284 17.2087 3.75284 17.212V17.2159V17.2163V33.3646C3.75284 33.6047 3.87289 33.8291 4.07283 33.962L21.4724 45.5429C21.4748 45.5443 21.4772 45.5448 21.4795 45.5463C21.5298 45.5788 21.5848 45.6032 21.6422 45.6228C21.6565 45.6276 21.6704 45.6324 21.6847 45.6362C21.744 45.652 21.8053 45.663 21.8694 45.663C21.9335 45.663 21.9947 45.652 22.054 45.6357C22.0683 45.6319 22.0827 45.6271 22.0966 45.6223C22.1554 45.6027 22.2118 45.5778 22.2625 45.5443C22.264 45.5434 22.2654 45.5429 22.2668 45.5424L22.2697 45.5405C22.2702 45.5405 22.2702 45.54 22.2707 45.54L43.7583 31.2146C43.9578 31.0816 44.0778 30.8578 44.0778 30.6177V14.4699C44.0788 14.4689 44.0788 14.4675 44.0788 14.4665ZM25.9623 3.74565L42.067 14.4651L36.9735 17.8611L21.1084 6.98191L25.9623 3.74565ZM21.8698 27.9305L5.76414 17.2111L14.1083 11.6483L29.9739 22.5275L21.8698 27.9305ZM19.8217 7.83952L35.6868 18.7187L31.2601 21.6699L15.3945 10.7907L19.8217 7.83952ZM31.957 22.9298L36.2163 20.09L36.0647 26.8505L31.957 29.5453V22.9298V22.9298ZM5.18777 18.5508L21.1524 29.177V43.6058L5.18777 32.9801V18.5508ZM22.5873 43.6048V29.1765L30.522 23.8864V30.8741C30.522 31.1376 30.6669 31.3801 30.8985 31.5054C31.0056 31.5628 31.1228 31.5915 31.2395 31.5915C31.3768 31.5915 31.514 31.5523 31.6331 31.4739L37.1672 27.843C37.3643 27.7134 37.4853 27.4953 37.491 27.259L37.6733 19.1186L42.6439 15.8048V30.2336L22.5873 43.6048Z" fill="black"/>
<path d="M19.8399 32.7414C20.0719 32.7414 20.2996 32.6295 20.4378 32.4214C20.6573 32.0918 20.5679 31.646 20.2383 31.4265L12.0181 25.9551C11.688 25.7356 11.2422 25.8245 11.0232 26.155C10.8036 26.4846 10.8931 26.9304 11.2226 27.1499L19.4434 32.6213C19.5653 32.7026 19.7036 32.7414 19.8399 32.7414Z" fill="black"/>
<path d="M20.2383 35.1693L15.5308 32.0359C15.2007 31.8164 14.7549 31.9058 14.5359 32.2358C14.3163 32.5654 14.4058 33.0112 14.7353 33.2307L19.4429 36.3641C19.5648 36.4455 19.7031 36.4842 19.8399 36.4842C20.0718 36.4842 20.2995 36.3723 20.4378 36.1642C20.6573 35.8342 20.5679 35.3889 20.2383 35.1693Z" fill="black"/>
</svg>
