<svg width="48" height="48" viewBox="0 0 48 48" fill="none" xmlns="http://www.w3.org/2000/svg">
<path d="M35.4773 12.5695V8.66174C35.4773 8.26522 35.1564 7.94427 34.7599 7.94427H7.44491C7.04839 7.94427 6.72745 8.26522 6.72745 8.66174V23.6281C6.72745 30.8277 8.95016 37.371 12.6733 41.1319C12.8082 41.2682 12.9919 41.3448 13.1832 41.3448H29.0201C29.2114 41.3448 29.3951 41.2682 29.53 41.1319C32.0698 38.5663 33.9099 34.7053 34.8244 30.2264C38.7184 30.191 41.8762 27.015 41.8762 23.112V19.649C41.8762 15.9675 39.0656 12.9302 35.4773 12.5695ZM8.16238 9.37921H34.0424V23.6281C34.0424 27.8339 33.2111 31.8771 31.7561 35.1616H10.4478C8.99321 31.8766 8.1619 27.8339 8.1619 23.6281L8.16238 9.37921ZM28.7154 39.9098H13.4874C12.614 38.9833 11.832 37.8617 11.1504 36.5966H31.0539C30.3713 37.8612 29.5893 38.9833 28.7154 39.9098ZM40.4412 23.112C40.4412 26.1359 38.0659 28.6083 35.0846 28.7781C35.342 27.1217 35.4773 25.395 35.4773 23.6281V14.0188C38.2716 14.3733 40.4408 16.7605 40.4408 19.6495L40.4412 23.112Z" fill="black"/>
</svg>
