<svg width="53" height="11" viewBox="0 0 53 11" fill="none" xmlns="http://www.w3.org/2000/svg">
<path fill-rule="evenodd" clip-rule="evenodd" d="M23.303 10.192C22.815 10.192 22.375 10.072 21.983 9.832C21.591 9.58401 21.2791 9.23199 21.047 8.776C20.823 8.32001 20.711 7.784 20.711 7.168C20.711 6.51199 20.843 5.93201 21.1071 5.42801C21.371 4.92401 21.735 4.52802 22.199 4.23999C22.6711 3.952 23.203 3.80801 23.795 3.80801C24.0591 3.80801 24.319 3.84399 24.575 3.91602C24.8391 3.98001 25.047 4.056 25.199 4.14401V2.5V2.14001C25.201 2.11044 25.2032 2.07968 25.2057 2.0477L25.2115 1.97568C25.218 1.89703 25.2259 1.81183 25.235 1.72L24.803 1.74399C24.6671 1.75201 24.527 1.76001 24.3831 1.76801V1.26401C24.735 1.26401 25.007 1.24802 25.199 1.216C25.3911 1.18399 25.535 1.14401 25.631 1.09601C25.735 1.048 25.815 0.996002 25.871 0.940002H26.2191V8.728C26.2191 8.85599 26.215 8.98401 26.207 9.112C26.199 9.23999 26.187 9.384 26.1711 9.54401L26.3929 9.53146L26.591 9.51999L27.023 9.496V10H25.307C25.267 9.784 25.239 9.57599 25.2231 9.37601C24.9991 9.62399 24.7231 9.82401 24.3951 9.97601C24.067 10.12 23.703 10.192 23.303 10.192ZM23.735 9.604C23.9991 9.604 24.263 9.52802 24.527 9.37601C24.799 9.224 25.023 9.03601 25.199 8.81201C25.191 8.716 25.187 8.616 25.187 8.51199V8.15201L25.199 4.69601C25.007 4.552 24.795 4.448 24.563 4.384C24.3391 4.31201 24.1071 4.276 23.867 4.276C23.467 4.276 23.119 4.392 22.823 4.62399C22.527 4.85599 22.303 5.17999 22.151 5.59601C21.9991 6.01199 21.931 6.5 21.9471 7.06C21.963 7.548 22.039 7.98401 22.175 8.36801C22.319 8.75201 22.519 9.056 22.7751 9.28C23.039 9.496 23.359 9.604 23.735 9.604ZM0.928009 10V9.604C1.168 9.604 1.35202 9.54001 1.48001 9.41199C1.608 9.284 1.71201 9.108 1.79202 8.884C1.88 8.66 1.98001 8.39999 2.09201 8.104L4.564 1.37201H4.85202L7.52802 8.20001C7.55167 8.26205 7.57639 8.33066 7.6022 8.40582C7.6463 8.53412 7.69357 8.68152 7.74402 8.84799C7.82401 9.112 7.85602 9.336 7.84 9.51999L8.24802 9.496L8.65601 9.47202V10H5.90802V9.604C6.21201 9.59601 6.41202 9.52802 6.508 9.39999C6.604 9.272 6.64001 9.12 6.616 8.944C6.59201 8.76801 6.552 8.608 6.496 8.46399L6.07602 7.336L2.95602 7.40799L2.53601 8.69202C2.48001 8.884 2.42801 9.03601 2.38 9.14801C2.34 9.26001 2.29202 9.384 2.23602 9.51999C2.396 9.51199 2.552 9.504 2.70401 9.496C2.86401 9.48801 3.02002 9.48001 3.172 9.47202V10H0.928009ZM3.13602 6.892H5.90802L5.056 4.60001C4.96802 4.35199 4.87601 4.108 4.78 3.86801L4.51602 3.12399H4.492C4.41202 3.34799 4.328 3.57199 4.24002 3.79599C4.22421 3.8403 4.20822 3.88477 4.19208 3.92938C4.16919 3.99271 4.14597 4.05634 4.12244 4.12027C4.0787 4.23911 4.03391 4.35901 3.98801 4.48001L3.13602 6.892ZM11.2477 10.192C10.7277 10.192 10.2877 10.124 9.92773 9.98801C9.57571 9.85199 9.30774 9.68399 9.12372 9.48401C8.94772 9.276 8.85974 9.064 8.85974 8.84799C8.85974 8.64801 8.90771 8.48001 9.00372 8.34399C9.09973 8.20801 9.23572 8.14001 9.41171 8.14001C9.61972 8.13199 9.76373 8.19601 9.84372 8.332C9.93173 8.45999 9.97574 8.57599 9.97574 8.67999C9.97574 8.7103 9.97345 8.74118 9.96884 8.77264C9.9613 8.82422 9.9476 8.87735 9.92773 8.93201C9.90372 9.01199 9.85571 9.08801 9.78372 9.16C9.89572 9.39999 10.0877 9.564 10.3597 9.65201C10.6397 9.73199 10.9117 9.772 11.1757 9.772C11.5277 9.772 11.8397 9.672 12.1117 9.47202C12.3837 9.26401 12.5197 8.93201 12.5197 8.47601C12.5197 8.004 12.3717 7.668 12.0757 7.46802C11.7797 7.26001 11.4317 7.15601 11.0317 7.15601H10.4917V6.71201H10.9837C11.4317 6.71201 11.7517 6.59201 11.9437 6.35199C12.1357 6.104 12.2317 5.79199 12.2317 5.41602C12.2317 5.056 12.1397 4.772 11.9557 4.564C11.7717 4.35602 11.5077 4.25201 11.1637 4.25201C10.8357 4.25201 10.5597 4.34 10.3357 4.51599C10.1117 4.68399 9.93573 4.89999 9.80774 5.164C9.68771 5.42001 9.61972 5.68799 9.60373 5.96802H9.21973V3.86801H9.72372L9.69974 4.32401C9.94772 4.12399 10.2117 3.98801 10.4917 3.91602C10.7797 3.84399 11.0517 3.80801 11.3077 3.80801C11.8837 3.80801 12.3637 3.948 12.7477 4.228C13.1397 4.5 13.3357 4.87201 13.3357 5.34399C13.3357 5.68799 13.2237 5.996 12.9997 6.26801C12.7837 6.53201 12.4677 6.72 12.0517 6.832C12.5317 6.87201 12.9197 7.03201 13.2157 7.31201C13.5197 7.58401 13.6717 7.944 13.6717 8.392C13.6717 8.75201 13.5677 9.06799 13.3597 9.34C13.1597 9.604 12.8757 9.81201 12.5077 9.96399C12.1477 10.116 11.7277 10.192 11.2477 10.192ZM18.1476 9.64001C18.1555 9.74399 18.1715 9.86401 18.1956 10H19.9115V9.496L19.4796 9.51999L19.2429 9.53366L19.0595 9.54401L19.0661 9.47739L19.0739 9.39233C19.083 9.29163 19.0902 9.19818 19.0956 9.112C19.1035 8.98401 19.1075 8.85599 19.1075 8.728V7.384C19.1155 6.92801 19.1195 6.47601 19.1195 6.02802C19.1275 5.26001 18.9715 4.70001 18.6516 4.34799C18.3315 3.98801 17.8355 3.80801 17.1635 3.80801C16.7076 3.80801 16.2995 3.87201 15.9395 4C15.5795 4.12799 15.2955 4.29999 15.0875 4.51599C14.8875 4.73199 14.7875 4.97601 14.7875 5.24802C14.7875 5.40799 14.8315 5.548 14.9195 5.668C15.0075 5.78 15.1355 5.836 15.3035 5.836C15.5035 5.84399 15.6436 5.78799 15.7235 5.668C15.8035 5.54001 15.8435 5.42801 15.8435 5.332C15.8435 5.26001 15.8315 5.18399 15.8075 5.104C15.7915 5.01599 15.7515 4.94 15.6875 4.87601C15.7995 4.64401 15.9755 4.48001 16.2155 4.384C16.4635 4.28799 16.7036 4.24399 16.9355 4.25201C17.2875 4.26001 17.5435 4.34399 17.7036 4.504C17.8636 4.664 17.9675 4.86801 18.0155 5.116C18.0635 5.36401 18.0876 5.62799 18.0876 5.90799V6.65201C17.6875 6.64401 17.2715 6.68399 16.8395 6.772C16.4155 6.85199 16.0195 6.98001 15.6516 7.15601C15.2915 7.32401 14.9955 7.54401 14.7635 7.81601C14.5396 8.08002 14.4276 8.396 14.4276 8.76401C14.4276 9.164 14.5755 9.504 14.8716 9.784C15.1675 10.056 15.6195 10.192 16.2275 10.192C16.5795 10.192 16.9115 10.116 17.2235 9.96399C17.5435 9.80402 17.8395 9.58801 18.1115 9.31601C18.1275 9.42801 18.1395 9.53601 18.1476 9.64001ZM17.2235 7.168C17.5275 7.104 17.8156 7.06799 18.0876 7.06C18.0876 7.24197 18.0858 7.41046 18.0825 7.5654C18.0807 7.64886 18.0783 7.72839 18.0755 7.80402V8.18799V8.51199C18.0755 8.616 18.0795 8.71201 18.0876 8.79999C17.8475 9.02402 17.6035 9.20001 17.3555 9.328C17.1155 9.448 16.8315 9.508 16.5035 9.508C16.2556 9.508 16.0396 9.436 15.8555 9.29199C15.6795 9.14001 15.5835 8.91602 15.5675 8.62C15.5595 8.34 15.6315 8.104 15.7835 7.91199C15.9435 7.71201 16.1476 7.552 16.3955 7.43201C16.6516 7.31201 16.9276 7.224 17.2235 7.168ZM17.604 2.42801C17.444 2.42801 17.304 2.35999 17.184 2.224C17.064 2.08801 17.004 1.92001 17.004 1.72C17.004 1.51999 17.064 1.35199 17.184 1.216C17.312 1.07199 17.452 1 17.604 1C17.78 1 17.924 1.07199 18.036 1.216C18.148 1.35199 18.204 1.51999 18.204 1.72C18.204 1.92001 18.144 2.08801 18.024 2.224C17.904 2.35999 17.764 2.42801 17.604 2.42801ZM15.6 2.42801C15.44 2.42801 15.3 2.35999 15.18 2.224C15.06 2.08801 15 1.92001 15 1.72C15 1.51999 15.06 1.35199 15.18 1.216C15.308 1.07199 15.448 1 15.6 1C15.776 1 15.92 1.07199 16.032 1.216C16.144 1.35199 16.2 1.51999 16.2 1.72C16.2 1.92001 16.14 2.08801 16.02 2.224C15.9 2.35999 15.76 2.42801 15.6 2.42801ZM30 1H53V10H30V1ZM44.3477 5.35394C44.2277 5.20395 44.0981 5.09985 43.959 5.04163C43.8199 4.9812 43.6639 4.95099 43.4912 4.95099C43.1529 4.95099 42.8926 5.06403 42.7103 5.29013C42.528 5.51624 42.4368 5.83859 42.4368 6.25723C42.4368 6.47885 42.4572 6.66913 42.498 6.82806C42.5388 6.98477 42.5988 7.11462 42.6779 7.21759C42.7571 7.31833 42.8542 7.39221 42.9694 7.43921C43.0846 7.48624 43.2153 7.50974 43.3616 7.50974C43.5728 7.50974 43.7563 7.46497 43.9122 7.37543C44.0706 7.28589 44.2157 7.15939 44.3477 6.99597V5.35394ZM44.9882 3V7.94626H44.6068C44.5156 7.94626 44.458 7.90485 44.434 7.82202L44.3764 7.409C44.2205 7.58362 44.043 7.72464 43.8438 7.83209C43.6447 7.93954 43.4144 7.99329 43.1529 7.99329C42.9442 7.99329 42.7547 7.95636 42.5844 7.88248C42.414 7.80637 42.2689 7.69556 42.1489 7.55002C42.029 7.40451 41.9366 7.22321 41.8718 7.00604C41.8071 6.78891 41.7747 6.53928 41.7747 6.25723C41.7747 6.0065 41.8107 5.77368 41.8826 5.55878C41.9546 5.34161 42.0578 5.15356 42.1921 4.99463C42.3264 4.83569 42.4908 4.71143 42.6851 4.62189C42.8818 4.53012 43.1025 4.48422 43.3473 4.48422C43.5704 4.48422 43.7611 4.52005 43.9194 4.59167C44.0802 4.66107 44.2229 4.75845 44.3477 4.88382V3H44.9882ZM36.4991 8C36.2112 8 35.9893 7.92502 35.8333 7.77502C35.6798 7.62503 35.603 7.409 35.603 7.12692V5.04498H35.164C35.1507 5.04498 35.1381 5.04376 35.1262 5.04135C35.1039 5.0368 35.084 5.02792 35.0668 5.01477C35.0404 4.9924 35.0273 4.9588 35.0273 4.91403V4.67563L35.6246 4.6051L35.7722 3.55408C35.7764 3.53442 35.7834 3.51706 35.7934 3.50201C35.8005 3.49133 35.809 3.48184 35.8189 3.47348C35.8453 3.45108 35.8789 3.43988 35.9197 3.43988H36.2436V4.61182H37.2979V5.04498H36.2436V7.08664C36.2436 7.22992 36.2807 7.33624 36.3551 7.40564C36.4295 7.47504 36.5255 7.50974 36.643 7.50974C36.7102 7.50974 36.7678 7.50189 36.8157 7.48624C36.8661 7.46832 36.9093 7.44928 36.9453 7.42914C36.9813 7.409 37.0113 7.39108 37.0352 7.37543C37.0616 7.35751 37.0844 7.34854 37.1036 7.34854C37.1372 7.34854 37.1672 7.36758 37.1936 7.40564L37.3807 7.69107C37.2704 7.78732 37.1372 7.86343 36.9813 7.9194C36.8253 7.97314 36.6646 8 36.4991 8ZM34.3702 5.13217C34.3669 5.1358 34.3636 5.13922 34.3601 5.14243C34.3471 5.15433 34.3323 5.16336 34.3156 5.16949C34.2979 5.17606 34.2782 5.17932 34.2563 5.17932C34.2448 5.17932 34.2328 5.17807 34.2203 5.17557C34.1938 5.1702 34.165 5.15912 34.1339 5.14236C34.0884 5.11777 34.032 5.09088 33.9648 5.0618C33.9341 5.04691 33.9004 5.03281 33.8637 5.01944L33.8408 5.01132C33.8271 5.00662 33.8131 5.00201 33.7986 4.9975C33.7769 4.99072 33.7544 4.98419 33.7309 4.97784C33.6397 4.95099 33.5318 4.93753 33.407 4.93753C33.2991 4.93753 33.2019 4.95099 33.1156 4.97784C33.0292 5.00247 32.9548 5.03717 32.8925 5.08194C32.8325 5.12671 32.7857 5.17932 32.7521 5.23975C32.7209 5.29797 32.7053 5.36176 32.7053 5.43115C32.7053 5.43686 32.7054 5.4425 32.7057 5.44812C32.706 5.45578 32.7065 5.46332 32.7072 5.47073C32.7099 5.49823 32.7156 5.52411 32.7241 5.54837C32.7373 5.58588 32.7574 5.61957 32.7845 5.64941C32.8397 5.70764 32.9117 5.758 33.0004 5.80054C33.0892 5.84308 33.1899 5.88113 33.3027 5.9147C33.4154 5.94604 33.5306 5.98074 33.6481 6.0188C33.6921 6.03192 33.7356 6.04565 33.7786 6.06C33.8529 6.08478 33.9258 6.11133 33.9972 6.13968C34.11 6.18445 34.2107 6.24042 34.2995 6.30759C34.3882 6.37476 34.459 6.45758 34.5118 6.55609C34.567 6.65234 34.5946 6.76874 34.5946 6.9053C34.5946 7.06201 34.5646 7.20752 34.5046 7.34183C34.4446 7.47391 34.3559 7.5892 34.2383 7.68771C34.1208 7.78397 33.9768 7.86008 33.8065 7.91605C33.6361 7.97202 33.4394 8 33.2163 8C32.962 8 32.7317 7.96194 32.5254 7.88583C32.3191 7.80746 32.144 7.70786 32 7.58698L32.1512 7.35864C32.1625 7.3414 32.1751 7.32651 32.189 7.31396L32.193 7.31049L32.2002 7.3046C32.203 7.30243 32.2058 7.30035 32.2087 7.29837C32.2122 7.29596 32.2159 7.29364 32.2195 7.29147C32.2459 7.27579 32.2795 7.26797 32.3203 7.26797C32.3635 7.26797 32.409 7.28363 32.457 7.31497C32.505 7.34631 32.5626 7.38101 32.6298 7.41907C32.6993 7.45712 32.7833 7.49182 32.8817 7.52316C32.98 7.5545 33.1024 7.57019 33.2487 7.57019C33.3734 7.57019 33.4826 7.55563 33.5762 7.52652C33.6697 7.49518 33.7477 7.45377 33.8101 7.40228C33.8725 7.3508 33.918 7.29147 33.9468 7.2243C33.9527 7.21164 33.958 7.19882 33.9628 7.18585C33.9695 7.16766 33.9751 7.14917 33.9796 7.13037C33.9843 7.1106 33.9879 7.09045 33.9902 7.06998C33.9912 7.06116 33.992 7.05228 33.9926 7.0433C33.9933 7.0321 33.9936 7.02081 33.9936 7.0094C33.9936 6.91537 33.966 6.83813 33.9108 6.77771C33.8581 6.71503 33.7873 6.66241 33.6985 6.61987C33.6098 6.5751 33.5078 6.53705 33.3926 6.50571L33.0436 6.40161C32.926 6.36578 32.8097 6.3255 32.6945 6.28073C32.6372 6.25684 32.5831 6.23007 32.532 6.20041C32.4825 6.17169 32.4359 6.14026 32.3922 6.10611C32.3035 6.03671 32.2315 5.95166 32.1763 5.85089C32.1236 5.74792 32.0972 5.62369 32.0972 5.47818C32.0972 5.34833 32.1259 5.22409 32.1835 5.10544C32.2411 4.98456 32.3251 4.87933 32.4354 4.78979C32.5458 4.698 32.6813 4.62524 32.8421 4.57153C33.0028 4.51779 33.1863 4.49094 33.3926 4.49094C33.6325 4.49094 33.8473 4.52676 34.0368 4.59839C34.2287 4.66779 34.3943 4.76404 34.5334 4.88718L34.3895 5.10544C34.3837 5.11536 34.3772 5.12427 34.3702 5.13217ZM40.9569 7.94626V4.54465H40.3164V7.04968C40.1773 7.19745 40.0249 7.31384 39.8594 7.39893C39.6963 7.48175 39.5199 7.52316 39.3304 7.52316C39.0713 7.52316 38.8782 7.45267 38.751 7.31161C38.6263 7.17059 38.5639 6.97134 38.5639 6.7139V4.54465H37.9234V6.7139C37.9234 6.90643 37.9485 7.08215 37.9989 7.24109C38.0517 7.40005 38.1297 7.53549 38.2328 7.6474C38.336 7.75934 38.4631 7.84665 38.6143 7.90933C38.7678 7.96979 38.9442 8 39.1433 8C39.3976 8 39.6231 7.95074 39.8198 7.85226C40.0165 7.75153 40.1941 7.61945 40.3524 7.45602L40.4028 7.82202C40.4191 7.87851 40.4511 7.91574 40.4987 7.93372C40.521 7.94208 40.5465 7.94626 40.5755 7.94626H40.9569ZM46.6764 7.94626V4.54465H46.0359V7.94626H46.6764ZM46.8091 3.53207C46.8118 3.51401 46.8132 3.49561 46.8132 3.47684C46.8132 3.41864 46.8 3.36377 46.7736 3.31229C46.7496 3.25858 46.716 3.21268 46.6728 3.17462C46.632 3.13431 46.5829 3.10297 46.5253 3.0806C46.4927 3.06738 46.4589 3.05804 46.4238 3.05261C46.3994 3.04886 46.3745 3.047 46.349 3.047C46.2866 3.047 46.2278 3.0582 46.1726 3.0806C46.1481 3.09097 46.1249 3.1033 46.103 3.11755C46.0956 3.12238 46.0883 3.12744 46.0812 3.13272C46.076 3.13647 46.071 3.14038 46.066 3.14441L46.0591 3.15009C46.055 3.15356 46.051 3.1571 46.047 3.16074C46.042 3.16525 46.0371 3.16986 46.0323 3.17462C45.9915 3.21268 45.9591 3.25858 45.9351 3.31229C45.9111 3.36377 45.8991 3.41864 45.8991 3.47684C45.8991 3.53503 45.9111 3.58987 45.9351 3.64136C45.944 3.65964 45.9541 3.67728 45.9653 3.69431C45.9843 3.72321 46.0067 3.75034 46.0323 3.7757C46.0731 3.81375 46.1198 3.84396 46.1726 3.86636C46.1969 3.87619 46.2219 3.88385 46.2475 3.88937C46.2644 3.89301 46.2816 3.89569 46.2991 3.89746C46.3154 3.89911 46.3321 3.89993 46.349 3.89993C46.382 3.89993 46.4142 3.89679 46.4452 3.89047C46.4572 3.88803 46.469 3.88516 46.4806 3.88181C46.4958 3.87744 46.5107 3.87228 46.5253 3.86636C46.5829 3.84396 46.632 3.81375 46.6728 3.7757C46.6927 3.75717 46.7105 3.7377 46.7263 3.71732C46.7363 3.70428 46.7456 3.69089 46.754 3.67709C46.7611 3.66547 46.7676 3.65356 46.7736 3.64136C46.7915 3.60648 46.8033 3.57004 46.8091 3.53207ZM49.2655 4.49094C49.5318 4.49094 49.7717 4.53235 49.9852 4.61517C50.1987 4.698 50.381 4.81552 50.5322 4.96777C50.6833 5.12 50.7985 5.30469 50.8777 5.52182C50.9592 5.73672 51 5.97739 51 6.24377C51 6.51242 50.9592 6.75421 50.8777 6.96912C50.7985 7.18402 50.6833 7.36758 50.5322 7.51981C50.381 7.67203 50.1987 7.78958 49.9852 7.87241C49.7717 7.953 49.5318 7.99329 49.2655 7.99329C48.9968 7.99329 48.7545 7.953 48.5386 7.87241C48.3251 7.78958 48.1427 7.67203 47.9916 7.51981C47.8405 7.36758 47.7241 7.18402 47.6425 6.96912C47.5634 6.75421 47.5238 6.51242 47.5238 6.24377C47.5238 5.97739 47.5634 5.73672 47.6425 5.52182C47.7241 5.30469 47.8405 5.12 47.9916 4.96777C48.1427 4.81552 48.3251 4.698 48.5386 4.61517C48.7545 4.53235 48.9968 4.49094 49.2655 4.49094ZM49.2655 7.52652C49.6253 7.52652 49.894 7.41458 50.0716 7.19073C50.2491 6.96463 50.3379 6.65009 50.3379 6.24713C50.3379 5.84195 50.2491 5.52631 50.0716 5.3002C49.894 5.0741 49.6253 4.96106 49.2655 4.96106C49.0832 4.96106 48.9236 4.99014 48.7869 5.04834C48.6525 5.10657 48.5398 5.19052 48.4486 5.3002C48.3599 5.40988 48.2927 5.54532 48.2471 5.70651C48.2039 5.86545 48.1823 6.04565 48.1823 6.24713C48.1823 6.65009 48.2711 6.96463 48.4486 7.19073C48.6285 7.41458 48.9008 7.52652 49.2655 7.52652Z" fill="black"/>
</svg>
