<svg width="116" height="24" viewBox="0 0 116 24" fill="none" xmlns="http://www.w3.org/2000/svg">
<g clip-path="url(#clip0)">
<path fill-rule="evenodd" clip-rule="evenodd" d="M50.8428 22.237C49.7781 22.237 48.8181 21.9751 47.9628 21.4515C47.1075 20.9104 46.427 20.1424 45.9206 19.1475C45.4319 18.1526 45.1875 16.9831 45.1875 15.6391C45.1875 14.2078 45.4755 12.9424 46.0518 11.8428C46.6275 10.7432 47.4217 9.87918 48.4341 9.25076C49.4641 8.62241 50.6246 8.30825 51.9163 8.30825C52.4925 8.30825 53.0595 8.38676 53.6181 8.54391C54.1943 8.68353 54.6479 8.84932 54.9795 9.04134V5.45441V4.66898C54.9839 4.60446 54.9887 4.53735 54.9942 4.46758L55.0068 4.31044C55.021 4.13884 55.0382 3.95295 55.0581 3.7526L54.1155 3.80494C53.819 3.82243 53.5134 3.83989 53.1994 3.85734V2.75771C53.9672 2.75771 54.5606 2.72282 54.9795 2.65296C55.3987 2.58312 55.7126 2.49589 55.9221 2.39116C56.149 2.28641 56.3235 2.17296 56.4457 2.05078H57.2052V19.0428C57.2052 19.322 57.1963 19.6013 57.1788 19.8806C57.1614 20.1598 57.1352 20.474 57.1005 20.8232L57.5844 20.7958L58.0166 20.7708L58.9592 20.7184V21.818H55.2152C55.1279 21.3468 55.0668 20.8929 55.0321 20.4566C54.5434 20.9977 53.9412 21.4341 53.2256 21.7657C52.5097 22.0799 51.7155 22.237 50.8428 22.237ZM51.7854 20.954C52.3616 20.954 52.9374 20.7883 53.5134 20.4566C54.1068 20.125 54.5955 19.7148 54.9795 19.2261C54.9621 19.0166 54.9534 18.7984 54.9534 18.5715V17.7861L54.9795 10.2457C54.5606 9.9315 54.0981 9.70459 53.5919 9.56496C53.1034 9.40789 52.5972 9.32932 52.0734 9.32932C51.2006 9.32932 50.4414 9.58241 49.7955 10.0886C49.1497 10.5948 48.661 11.3017 48.3294 12.2093C47.9979 13.1169 47.8494 14.1817 47.8845 15.4035C47.9192 16.4682 48.085 17.4195 48.3817 18.2573C48.6959 19.0952 49.1323 19.7584 49.691 20.2471C50.2668 20.7184 50.965 20.954 51.7854 20.954ZM2.02466 21.818V20.954C2.54827 20.954 2.94977 20.8144 3.22902 20.5351C3.50827 20.2559 3.73521 19.8719 3.90977 19.3831C4.10173 18.8944 4.31993 18.3271 4.5643 17.6813L9.95773 2.99334H10.5861L16.4247 17.8908C16.4763 18.0262 16.5302 18.1759 16.5865 18.3398C16.6827 18.6198 16.7859 18.9414 16.896 19.3046C17.0705 19.8806 17.1403 20.3693 17.1054 20.7708L17.9956 20.7184L18.8857 20.6661V21.818H12.8901V20.954C13.5534 20.9366 13.9898 20.7883 14.1992 20.5089C14.4086 20.2297 14.4872 19.898 14.4348 19.514C14.3825 19.1301 14.2952 18.781 14.173 18.4668L13.2567 16.0057L6.44941 16.1628L5.53302 18.9643C5.41084 19.3831 5.29739 19.7148 5.19264 19.9592C5.10537 20.2035 5.00068 20.474 4.8785 20.7708C5.22755 20.7533 5.56791 20.7359 5.89957 20.7184C6.24866 20.701 6.58905 20.6835 6.92064 20.6661V21.818H2.02466ZM6.84214 15.037H12.8901L11.0312 10.0363C10.8392 9.49512 10.6385 8.96278 10.429 8.43916L9.85304 6.81585H9.80064C9.62614 7.30457 9.44282 7.7933 9.25086 8.28203C9.21637 8.3787 9.18148 8.47573 9.14627 8.57306C9.09633 8.71124 9.04566 8.85006 8.99432 8.98955C8.89889 9.24883 8.80117 9.51044 8.70102 9.77444L6.84214 15.037ZM24.5403 22.237C23.4058 22.237 22.4458 22.0886 21.6604 21.7919C20.8924 21.4951 20.3077 21.1286 19.9062 20.6923C19.5222 20.2384 19.3303 19.7759 19.3303 19.3046C19.3303 18.8683 19.4349 18.5017 19.6444 18.2049C19.8539 17.9083 20.1506 17.7599 20.5345 17.7599C20.9884 17.7424 21.3026 17.8821 21.4771 18.1788C21.6691 18.458 21.7652 18.7111 21.7652 18.938C21.7652 19.0042 21.7602 19.0715 21.7501 19.1402C21.7337 19.2527 21.7038 19.3686 21.6604 19.4879C21.608 19.6624 21.5033 19.8283 21.3462 19.9853C21.5906 20.5089 22.0094 20.8668 22.6029 21.0588C23.2138 21.2333 23.8073 21.3206 24.3833 21.3206C25.1513 21.3206 25.832 21.1024 26.4254 20.6661C27.0189 20.2123 27.3156 19.4879 27.3156 18.493C27.3156 17.4631 26.9927 16.7301 26.3469 16.2937C25.7011 15.8399 24.9418 15.613 24.0691 15.613H22.8909V14.6443H23.9643C24.9418 14.6443 25.64 14.3824 26.0589 13.8588C26.4778 13.3177 26.6873 12.6369 26.6873 11.8166C26.6873 11.0311 26.4865 10.4115 26.0851 9.95769C25.6836 9.50391 25.1076 9.27698 24.3571 9.27698C23.6414 9.27698 23.0393 9.46896 22.5505 9.85294C22.0618 10.2195 21.6779 10.6908 21.3986 11.2668C21.1367 11.8253 20.9884 12.41 20.9535 13.021H20.1157V8.43916H21.2153L21.163 9.43407C21.704 8.99766 22.28 8.70098 22.8909 8.54391C23.5193 8.38676 24.1127 8.30825 24.6713 8.30825C25.928 8.30825 26.9753 8.61369 27.8131 9.2246C28.6683 9.81805 29.096 10.6297 29.096 11.6595C29.096 12.41 28.8516 13.0821 28.3629 13.6755C27.8916 14.2515 27.2022 14.6617 26.2945 14.906C27.3418 14.9933 28.1883 15.3424 28.8342 15.9533C29.4974 16.5468 29.8291 17.3322 29.8291 18.3097C29.8291 19.0952 29.6022 19.7846 29.1483 20.378C28.712 20.954 28.0923 21.4079 27.2894 21.7395C26.504 22.0711 25.5876 22.237 24.5403 22.237ZM39.5947 21.0326C39.6119 21.2595 39.6468 21.5213 39.6994 21.818H43.4432V20.7184L42.5009 20.7708L41.9844 20.8006L41.5843 20.8232L41.5987 20.6778L41.6157 20.4922C41.6355 20.2725 41.6513 20.0686 41.663 19.8806C41.6803 19.6013 41.689 19.322 41.689 19.0428V16.1104C41.7065 15.1155 41.7152 14.1293 41.7152 13.1519C41.7326 11.4763 41.3923 10.2544 40.6943 9.48639C39.9959 8.70098 38.9137 8.30825 37.4475 8.30825C36.4529 8.30825 35.5625 8.44789 34.777 8.72714C33.9915 9.00639 33.3719 9.38166 32.9181 9.85294C32.4817 10.3242 32.2635 10.8566 32.2635 11.4501C32.2635 11.7991 32.3595 12.1046 32.5515 12.3664C32.7435 12.6108 33.0228 12.733 33.3894 12.733C33.8257 12.7504 34.1314 12.6282 34.3057 12.3664C34.4803 12.0872 34.5675 11.8428 34.5675 11.6333C34.5675 11.4763 34.5414 11.3104 34.489 11.1359C34.4541 10.9438 34.3668 10.778 34.2272 10.6384C34.4715 10.1323 34.8555 9.77443 35.3792 9.56496C35.9203 9.35548 36.4441 9.25948 36.9501 9.27698C37.7181 9.29444 38.2766 9.47766 38.6259 9.82678C38.975 10.1759 39.2017 10.621 39.3065 11.1621C39.4112 11.7032 39.4638 12.2791 39.4638 12.89V14.5133C38.5908 14.4959 37.6832 14.5831 36.7406 14.7751C35.8155 14.9497 34.9515 15.229 34.1489 15.613C33.3632 15.9795 32.7174 16.4595 32.2112 17.053C31.7227 17.629 31.4783 18.3184 31.4783 19.1213C31.4783 19.9941 31.801 20.7359 32.447 21.3468C33.0926 21.9402 34.0788 22.237 35.4054 22.237C36.1734 22.237 36.8977 22.0711 37.5785 21.7395C38.2766 21.3905 38.9225 20.9192 39.5159 20.3257C39.5508 20.5701 39.577 20.8057 39.5947 21.0326ZM37.5785 15.6391C38.2417 15.4995 38.8703 15.4209 39.4638 15.4035C39.4638 15.8005 39.4598 16.1681 39.4526 16.5062C39.4487 16.6883 39.4435 16.8618 39.4374 17.0268V17.8646V18.5715C39.4374 18.7984 39.4461 19.0079 39.4638 19.1998C38.9399 19.6886 38.4075 20.0726 37.8665 20.3519C37.3428 20.6137 36.7232 20.7446 36.0075 20.7446C35.4667 20.7446 34.9954 20.5875 34.5937 20.2733C34.2097 19.9417 34.0003 19.453 33.9654 18.8071C33.9479 18.1962 34.105 17.6813 34.4366 17.2624C34.7857 16.8261 35.231 16.477 35.7719 16.2152C36.3307 15.9533 36.9329 15.7613 37.5785 15.6391ZM38.4086 5.29734C38.0595 5.29734 37.7541 5.14894 37.4923 4.85223C37.2305 4.55553 37.0995 4.18898 37.0995 3.7526C37.0995 3.31621 37.2305 2.94966 37.4923 2.65296C37.7715 2.33875 38.077 2.18169 38.4086 2.18169C38.7926 2.18169 39.1068 2.33875 39.3512 2.65296C39.5955 2.94966 39.7177 3.31621 39.7177 3.7526C39.7177 4.18898 39.5868 4.55553 39.325 4.85223C39.0632 5.14894 38.7577 5.29734 38.4086 5.29734ZM34.0363 5.29734C33.6872 5.29734 33.3817 5.14894 33.1199 4.85223C32.8581 4.55553 32.7272 4.18898 32.7272 3.7526C32.7272 3.31621 32.8581 2.94966 33.1199 2.65296C33.3992 2.33875 33.7046 2.18169 34.0363 2.18169C34.4203 2.18169 34.7345 2.33875 34.9788 2.65296C35.2232 2.94966 35.3454 3.31621 35.3454 3.7526C35.3454 4.18898 35.2145 4.55553 34.9526 4.85223C34.6908 5.14894 34.3854 5.29734 34.0363 5.29734ZM65.4545 2.18169H115.636V21.818H65.4545V2.18169ZM96.7585 11.6812C96.4967 11.3539 96.2139 11.1268 95.9104 10.9998C95.607 10.8679 95.2666 10.802 94.8898 10.802C94.1517 10.802 93.5838 11.0487 93.186 11.542C92.7883 12.0353 92.5893 12.7386 92.5893 13.652C92.5893 14.1355 92.6338 14.5507 92.7228 14.8975C92.8118 15.2394 92.9427 15.5227 93.1153 15.7473C93.2881 15.9671 93.5 16.1283 93.7513 16.2309C94.0027 16.3335 94.2878 16.3848 94.607 16.3848C95.0678 16.3848 95.4682 16.2871 95.8083 16.0917C96.1539 15.8964 96.4705 15.6204 96.7585 15.2638V11.6812ZM98.156 6.54532V17.3372H97.3238C97.1248 17.3372 96.9992 17.2468 96.9468 17.0661L96.8211 16.165C96.481 16.5459 96.0937 16.8536 95.6591 17.0881C95.2247 17.3225 94.7222 17.4398 94.1517 17.4398C93.6963 17.4398 93.2829 17.3592 92.9113 17.198C92.5395 17.0319 92.223 16.7902 91.9611 16.4726C91.6995 16.1552 91.4979 15.7596 91.3566 15.2858C91.2154 14.812 91.1447 14.2674 91.1447 13.652C91.1447 13.105 91.2232 12.597 91.3801 12.1281C91.5372 11.6543 91.7624 11.244 92.0554 10.8972C92.3484 10.5505 92.7071 10.2794 93.131 10.084C93.5602 9.88377 94.0417 9.78362 94.5758 9.78362C95.0626 9.78362 95.4787 9.8618 95.824 10.0181C96.1749 10.1695 96.4862 10.3819 96.7585 10.6555V6.54532H98.156ZM79.6343 17.4544C79.0062 17.4544 78.522 17.2908 78.1817 16.9635C77.8467 16.6363 77.6792 16.165 77.6792 15.5495V11.0071H76.7214C76.6923 11.0071 76.6649 11.0044 76.6389 10.9992C76.5902 10.9892 76.5468 10.9699 76.5093 10.9412C76.4517 10.8924 76.4231 10.8191 76.4231 10.7214V10.2012L77.7263 10.0474L78.0483 7.75422C78.0575 7.71133 78.0728 7.67345 78.0946 7.64062C78.1101 7.61732 78.1286 7.59661 78.1502 7.57837C78.2078 7.5295 78.2811 7.50506 78.3702 7.50506H79.0768V10.062H81.3771V11.0071H79.0768V15.4616C79.0768 15.7742 79.1578 16.0062 79.3201 16.1576C79.4824 16.309 79.6919 16.3848 79.9483 16.3848C80.0949 16.3848 80.2206 16.3676 80.3251 16.3335C80.435 16.2944 80.5293 16.2528 80.6078 16.2089C80.6864 16.165 80.7518 16.1259 80.804 16.0917C80.8616 16.0526 80.9113 16.033 80.9532 16.033C81.0265 16.033 81.092 16.0746 81.1496 16.1576L81.5578 16.7804C81.3171 16.9904 81.0265 17.1564 80.6864 17.2786C80.346 17.3958 79.9954 17.4544 79.6343 17.4544ZM74.9894 11.1973C74.9822 11.2053 74.975 11.2127 74.9674 11.2197C74.939 11.2457 74.9067 11.2654 74.8703 11.2788C74.8317 11.2931 74.7887 11.3002 74.7409 11.3002C74.7158 11.3002 74.6896 11.2975 74.6624 11.292C74.6046 11.2803 74.5417 11.2561 74.4739 11.2196C74.3746 11.1659 74.2515 11.1072 74.1049 11.0438C74.0379 11.0113 73.9644 10.9805 73.8843 10.9514L73.8344 10.9337C73.8045 10.9234 73.7739 10.9133 73.7423 10.9035C73.695 10.8887 73.6459 10.8745 73.5946 10.8606C73.3956 10.802 73.1602 10.7727 72.8879 10.7727C72.6525 10.7727 72.4404 10.802 72.2521 10.8606C72.0636 10.9143 71.9013 10.9901 71.7654 11.0877C71.6345 11.1854 71.5323 11.3002 71.459 11.432C71.391 11.5591 71.3569 11.6983 71.3569 11.8496C71.3569 11.8621 71.3571 11.8744 71.3578 11.8867C71.3585 11.9034 71.3595 11.9198 71.3611 11.936C71.367 11.996 71.3794 12.0525 71.3979 12.1054C71.4267 12.1872 71.4706 12.2607 71.5297 12.3259C71.6502 12.4529 71.8073 12.5628 72.0008 12.6556C72.1945 12.7484 72.4142 12.8314 72.6603 12.9047C72.9062 12.973 73.1576 13.0488 73.4139 13.1318C73.5099 13.1604 73.6048 13.1904 73.6987 13.2217C73.8608 13.2758 74.0198 13.3337 74.1756 13.3955C74.4217 13.4932 74.6414 13.6153 74.8352 13.7619C75.0287 13.9084 75.1832 14.0891 75.2984 14.3041C75.4188 14.5141 75.479 14.768 75.479 15.066C75.479 15.4079 75.4136 15.7254 75.2827 16.0184C75.1518 16.3066 74.9582 16.5581 74.7017 16.7731C74.4453 16.9831 74.1311 17.1491 73.7595 17.2713C73.3878 17.3934 72.9586 17.4544 72.4718 17.4544C71.917 17.4544 71.4145 17.3714 70.9644 17.2053C70.5143 17.0343 70.1323 16.817 69.8181 16.5533L70.148 16.0551C70.1726 16.0175 70.2001 15.985 70.2304 15.9576L70.2392 15.95L70.2549 15.9372C70.261 15.9324 70.2671 15.9279 70.2734 15.9236C70.2811 15.9183 70.2891 15.9133 70.297 15.9085C70.3546 15.8743 70.4279 15.8573 70.5169 15.8573C70.6112 15.8573 70.7105 15.8914 70.8152 15.9598C70.9199 16.0282 71.0456 16.1039 71.1922 16.1869C71.3438 16.2699 71.5271 16.3457 71.7418 16.414C71.9563 16.4824 72.2233 16.5166 72.5425 16.5166C72.8146 16.5166 73.0528 16.4849 73.2571 16.4214C73.4611 16.353 73.6313 16.2626 73.7674 16.1503C73.9035 16.038 74.0028 15.9085 74.0657 15.762C74.0785 15.7344 74.0901 15.7064 74.1006 15.6781C74.1152 15.6384 74.1274 15.5981 74.1372 15.557C74.1475 15.5139 74.1553 15.4699 74.1603 15.4253C74.1625 15.406 74.1643 15.3867 74.1656 15.3671C74.1671 15.3426 74.1678 15.318 74.1678 15.2931C74.1678 15.0879 74.1075 14.9194 73.9871 14.7876C73.8721 14.6508 73.7177 14.536 73.5239 14.4432C73.3304 14.3455 73.1078 14.2625 72.8565 14.1941L72.095 13.967C71.8384 13.8888 71.5847 13.801 71.3334 13.7033C71.2083 13.6512 71.0903 13.5927 70.9788 13.528C70.8708 13.4654 70.7691 13.3968 70.6738 13.3223C70.4803 13.1709 70.3232 12.9853 70.2027 12.7654C70.0878 12.5408 70.0302 12.2697 70.0302 11.9523C70.0302 11.669 70.0928 11.3979 70.2184 11.139C70.3441 10.8753 70.5274 10.6457 70.768 10.4503C71.0089 10.2501 71.3046 10.0913 71.6554 9.97412C72.006 9.85686 72.4064 9.79828 72.8565 9.79828C73.3799 9.79828 73.8486 9.87644 74.262 10.0327C74.6807 10.1841 75.042 10.3941 75.3455 10.6628L75.0315 11.139C75.0189 11.1607 75.0047 11.1801 74.9894 11.1973ZM89.3604 17.3372V9.91547H87.963V15.381C87.6595 15.7034 87.327 15.9573 86.9659 16.143C86.61 16.3237 86.2251 16.414 85.8117 16.414C85.2464 16.414 84.8251 16.2602 84.5475 15.9525C84.2755 15.6448 84.1393 15.2101 84.1393 14.6484V9.91547H82.7419V14.6484C82.7419 15.0684 82.7966 15.4518 82.9066 15.7986C83.0218 16.1454 83.192 16.4409 83.4169 16.6851C83.6421 16.9293 83.9194 17.1198 84.2493 17.2566C84.5842 17.3885 84.9691 17.4544 85.4035 17.4544C85.9583 17.4544 86.4503 17.3469 86.8795 17.1321C87.3086 16.9123 87.6961 16.6241 88.0415 16.2675L88.1515 17.0661C88.187 17.1893 88.2568 17.2706 88.3607 17.3098C88.4094 17.328 88.465 17.3372 88.5283 17.3372H89.3604ZM101.839 17.3372V9.91547H100.442V17.3372H101.839ZM102.129 7.7062C102.135 7.6668 102.138 7.62665 102.138 7.5857C102.138 7.45872 102.109 7.339 102.051 7.22668C101.999 7.1095 101.926 7.00935 101.831 6.92631C101.742 6.83836 101.635 6.76998 101.51 6.72118C101.439 6.69233 101.365 6.67196 101.288 6.66011C101.235 6.65193 101.181 6.64787 101.125 6.64787C100.989 6.64787 100.861 6.6723 100.74 6.72118C100.687 6.7438 100.636 6.7707 100.588 6.8018C100.572 6.81233 100.556 6.82337 100.541 6.83489C100.529 6.84308 100.518 6.85161 100.508 6.8604L100.492 6.87279C100.484 6.88036 100.475 6.88809 100.466 6.89603C100.455 6.90587 100.444 6.91593 100.434 6.92631C100.345 7.00935 100.274 7.1095 100.222 7.22668C100.17 7.339 100.143 7.45872 100.143 7.5857C100.143 7.71266 100.17 7.83231 100.222 7.94465C100.241 7.98454 100.263 8.02302 100.288 8.06018C100.329 8.12324 100.378 8.18243 100.434 8.23776C100.523 8.32078 100.625 8.38669 100.74 8.43556C100.793 8.45701 100.848 8.47372 100.904 8.48577C100.94 8.49371 100.978 8.49956 101.016 8.50342C101.052 8.50702 101.088 8.50881 101.125 8.50881C101.197 8.50881 101.267 8.50196 101.335 8.48817C101.361 8.48284 101.387 8.47658 101.412 8.46927C101.445 8.45974 101.478 8.44848 101.51 8.43556C101.635 8.38669 101.742 8.32078 101.831 8.23776C101.875 8.19733 101.914 8.15485 101.948 8.11038C101.97 8.08193 101.99 8.05272 102.009 8.02261C102.024 7.99726 102.038 7.97127 102.051 7.94465C102.09 7.86855 102.116 7.78905 102.129 7.7062ZM107.488 9.79828C108.069 9.79828 108.593 9.88863 109.059 10.0693C109.524 10.25 109.922 10.5065 110.252 10.8386C110.582 11.1708 110.833 11.5737 111.006 12.0475C111.184 12.5163 111.273 13.0414 111.273 13.6226C111.273 14.2088 111.184 14.7363 111.006 15.2052C110.833 15.6741 110.582 16.0746 110.252 16.4067C109.922 16.7388 109.524 16.9953 109.059 17.176C108.593 17.3519 108.069 17.4398 107.488 17.4398C106.902 17.4398 106.373 17.3519 105.902 17.176C105.436 16.9953 105.039 16.7388 104.709 16.4067C104.379 16.0746 104.125 15.6741 103.947 15.2052C103.775 14.7363 103.688 14.2088 103.688 13.6226C103.688 13.0414 103.775 12.5163 103.947 12.0475C104.125 11.5737 104.379 11.1708 104.709 10.8386C105.039 10.5065 105.436 10.25 105.902 10.0693C106.373 9.88863 106.902 9.79828 107.488 9.79828ZM107.488 16.4214C108.273 16.4214 108.86 16.1771 109.247 15.6887C109.634 15.1954 109.828 14.5092 109.828 13.63C109.828 12.7459 109.634 12.0573 109.247 11.5639C108.86 11.0706 108.273 10.824 107.488 10.824C107.091 10.824 106.742 10.8874 106.444 11.0144C106.151 11.1415 105.905 11.3246 105.706 11.5639C105.512 11.8032 105.366 12.0987 105.266 12.4504C105.172 12.7972 105.125 13.1904 105.125 13.63C105.125 14.5092 105.319 15.1954 105.706 15.6887C106.098 16.1771 106.693 16.4214 107.488 16.4214Z" fill="#FFF9F3"/>
</g>
<defs>
<clipPath id="clip0">
<rect width="115.636" height="24" fill="white"/>
</clipPath>
</defs>
</svg>
